<?xml version="1.0" standalone="no"?>
<!DOCTYPE svg PUBLIC "-//W3C//DTD SVG 20010904//EN"
 "http://www.w3.org/TR/2001/REC-SVG-20010904/DTD/svg10.dtd">
<svg version="1.0" xmlns="http://www.w3.org/2000/svg"
 width="2880.000000pt" height="1613.000000pt" viewBox="0 0 2880.000000 1613.000000"
 preserveAspectRatio="xMidYMid meet">
<metadata>
Created by potrace 1.16, written by Peter Selinger 2001-2019
</metadata>
<g transform="translate(0.000000,1613.000000) scale(0.100000,-0.100000)"
fill="#000000" stroke="none">
<path d="M10370 9013 c-69 -25 -127 -47 -129 -49 -2 -2 10 -25 27 -52 17 -28
35 -67 41 -88 7 -26 11 -248 11 -656 0 -442 3 -618 11 -618 6 0 31 18 55 39
l44 39 53 -29 c74 -40 157 -59 257 -59 153 0 265 44 349 136 87 95 125 207
124 369 -1 314 -175 502 -428 463 -77 -11 -151 -47 -214 -104 l-51 -46 0 351
c0 275 -3 351 -12 350 -7 0 -69 -21 -138 -46z m451 -643 c82 -23 149 -112 175
-234 26 -119 10 -299 -34 -400 -70 -157 -220 -202 -339 -102 -80 67 -106 190
-101 481 l3 199 63 33 c53 28 75 33 130 33 37 0 83 -5 103 -10z"/>
<path d="M12898 9012 c-71 -25 -128 -49 -128 -54 0 -4 13 -28 29 -54 40 -63
51 -121 51 -281 l0 -135 -32 7 c-149 32 -276 23 -382 -28 -175 -83 -276 -261
-276 -484 0 -196 76 -342 216 -413 43 -22 62 -25 154 -25 96 0 110 2 163 30
35 17 80 53 113 88 l54 58 0 -91 c0 -82 2 -91 18 -86 9 3 71 17 137 32 66 14
122 28 124 30 2 2 -10 19 -27 38 -56 64 -56 57 -59 764 -3 500 -7 652 -16 651
-7 0 -69 -21 -139 -47z m-157 -570 c29 -19 54 -47 74 -83 l30 -54 3 -264 3
-264 -27 -28 c-58 -61 -179 -91 -266 -65 -125 36 -189 158 -189 361 -1 162 30
268 101 348 48 55 94 76 166 77 49 0 68 -5 105 -28z"/>
<path d="M16878 9012 c-71 -25 -128 -50 -128 -54 0 -5 12 -26 26 -47 43 -66
54 -121 54 -279 l0 -144 -32 7 c-215 46 -383 7 -510 -119 -96 -93 -148 -233
-148 -393 0 -196 76 -342 216 -413 43 -22 62 -25 154 -25 96 0 110 2 163 30
35 17 80 53 113 88 l54 58 0 -91 c0 -82 2 -91 18 -86 9 3 71 17 137 32 66 14
122 28 124 30 2 2 -10 19 -27 38 -56 64 -56 57 -59 764 -3 500 -7 652 -16 651
-7 0 -69 -21 -139 -47z m-156 -571 c34 -22 53 -44 77 -92 l31 -62 0 -257 0
-256 -27 -27 c-64 -61 -179 -88 -265 -63 -124 36 -189 159 -189 361 -1 262
100 423 267 425 50 0 68 -5 106 -29z"/>
<path d="M18706 8413 c-234 -621 -273 -712 -336 -792 l-40 -51 135 0 135 0
-22 43 c-20 36 -23 57 -23 152 0 95 4 122 29 195 16 47 35 97 43 113 l14 27
213 0 c159 0 216 -3 223 -12 18 -23 101 -262 113 -325 12 -61 10 -140 -5 -175
-7 -17 6 -18 184 -18 105 0 191 3 191 6 0 3 -15 23 -33 44 -55 65 -94 156
-327 770 -209 549 -228 595 -251 598 -23 3 -33 -21 -243 -575z m232 52 c39
-104 83 -220 97 -257 l25 -68 -205 0 -205 0 19 48 c10 26 55 145 101 265 46
120 86 214 90 210 4 -4 39 -93 78 -198z"/>
<path d="M6920 8976 c0 -2 11 -28 23 -57 52 -119 52 -121 52 -649 0 -492 0
-495 -24 -570 -12 -41 -29 -87 -37 -102 l-15 -28 192 0 c149 0 190 3 186 13
-75 170 -80 219 -75 767 l4 425 31 85 c16 47 34 93 38 103 7 16 -6 17 -184 17
-105 0 -191 -2 -191 -4z"/>
<path d="M7533 8472 c-68 -26 -123 -50 -123 -54 0 -4 11 -24 25 -44 48 -71 55
-118 55 -375 0 -223 -8 -309 -36 -406 l-6 -23 141 0 c77 0 141 3 141 8 -1 4
-8 34 -17 67 -12 46 -17 129 -20 353 -5 288 -5 294 16 316 67 71 221 96 289
48 64 -46 67 -60 70 -334 3 -188 0 -268 -12 -336 -9 -49 -18 -96 -22 -106 -6
-14 8 -16 135 -16 82 0 141 4 141 10 0 5 -7 35 -16 67 -13 45 -18 128 -23 373
-6 297 -8 317 -28 355 -45 84 -94 118 -189 134 -119 19 -209 -13 -311 -112
l-63 -60 0 91 c0 67 -3 92 -12 91 -7 0 -68 -21 -135 -47z"/>
<path d="M8850 8510 c-114 -16 -207 -67 -290 -157 -91 -100 -130 -204 -130
-348 0 -206 85 -357 240 -428 121 -56 306 -48 409 17 49 31 99 90 123 144 21
47 17 64 -10 44 -58 -43 -130 -66 -213 -70 -102 -5 -165 12 -231 62 -191 146
-159 593 49 682 64 27 141 15 209 -31 51 -35 137 -126 162 -171 22 -40 28 -2
16 98 -7 57 -13 106 -14 110 0 13 -133 46 -200 51 -36 2 -90 1 -120 -3z"/>
<path d="M11649 8510 c-112 -14 -230 -75 -293 -153 -30 -38 -29 -61 2 -39 9 7
42 24 72 39 75 35 217 44 270 16 58 -30 70 -68 70 -220 l0 -133 -24 0 c-78 0
-313 -96 -374 -153 -54 -50 -78 -115 -73 -199 2 -42 62 -103 116 -118 106 -30
244 3 326 77 l37 33 12 -31 c28 -66 121 -103 205 -80 48 13 109 61 131 103 19
37 13 45 -18 24 -28 -20 -88 -21 -114 -2 -18 14 -19 32 -24 353 -5 338 -5 338
-30 383 -43 78 -155 116 -291 100z m119 -672 l-3 -143 -45 -22 c-53 -27 -136
-31 -181 -7 -37 19 -63 75 -55 118 14 75 73 129 188 172 105 38 99 46 96 -118z"/>
<path d="M13625 8509 c-172 -25 -341 -173 -395 -348 -22 -69 -26 -178 -9 -250
37 -164 198 -322 368 -361 33 -8 90 -11 148 -8 85 5 102 9 177 46 197 98 310
304 277 506 -18 109 -59 187 -144 270 -120 120 -260 167 -422 145z m174 -65
c84 -42 136 -127 166 -268 40 -194 -5 -425 -101 -522 -153 -153 -361 -58 -420
192 -23 98 -21 278 4 371 56 209 200 302 351 227z"/>
<path d="M14403 8472 c-68 -26 -123 -50 -123 -54 0 -4 11 -24 25 -44 48 -71
55 -118 55 -373 -1 -219 -9 -320 -36 -408 l-6 -23 141 0 c77 0 141 3 141 8 -1
4 -8 34 -17 67 -23 89 -32 584 -10 615 25 37 79 70 113 70 32 0 99 -20 141
-42 13 -6 25 -9 27 -7 2 2 5 56 7 119 l4 115 -30 -3 c-55 -6 -111 -41 -186
-117 -41 -41 -75 -80 -77 -85 -2 -6 -8 -10 -13 -10 -5 0 -9 50 -9 110 0 82 -3
110 -12 109 -7 0 -68 -21 -135 -47z"/>
<path d="M15320 8513 c-72 -9 -140 -28 -184 -50 -56 -28 -156 -118 -156 -140
0 -8 3 -13 8 -11 135 68 147 72 237 76 82 3 93 2 125 -20 56 -38 65 -66 65
-212 l0 -129 -80 -19 c-258 -60 -394 -167 -395 -309 0 -98 79 -159 207 -159
85 0 150 21 223 74 56 40 60 42 60 22 0 -25 59 -75 102 -87 86 -23 181 16 232
94 14 22 24 42 22 45 -2 2 -18 -4 -35 -12 -43 -23 -94 -20 -117 5 -18 20 -19
45 -24 358 -5 369 -6 370 -70 425 -42 35 -149 59 -220 49z m100 -672 l0 -139
-36 -23 c-26 -16 -57 -24 -110 -27 l-73 -5 -37 37 c-35 35 -36 39 -32 90 7 85
62 138 187 182 107 38 101 45 101 -115z"/>
<path d="M17572 8509 c-145 -20 -292 -148 -353 -307 -27 -71 -37 -231 -20
-314 44 -211 209 -348 422 -348 130 0 235 48 309 142 39 48 78 133 67 145 -4
3 -24 -10 -46 -30 -76 -69 -113 -82 -231 -82 -95 0 -110 3 -156 27 -106 56
-162 158 -172 311 l-5 87 308 0 308 0 -6 56 c-8 80 -48 153 -117 217 -88 82
-189 113 -308 96z m154 -69 c40 -37 65 -103 71 -184 l6 -73 -204 -6 c-112 -3
-205 -4 -207 -3 -7 7 29 138 47 174 22 43 75 96 111 111 14 6 53 10 87 8 50
-2 68 -8 89 -27z"/>
<path d="M19885 8510 c-82 -11 -116 -23 -168 -59 -66 -45 -92 -104 -92 -206 0
-69 4 -86 27 -127 40 -67 86 -101 238 -174 148 -72 195 -109 211 -166 20 -75
-27 -165 -98 -189 -45 -15 -139 -7 -183 16 -48 25 -120 102 -160 173 -33 57
-68 85 -56 45 2 -10 8 -67 11 -126 8 -125 0 -117 140 -144 123 -23 273 -15
350 21 106 48 154 114 163 222 9 112 -43 208 -146 272 -26 16 -96 50 -155 77
-164 73 -217 120 -217 190 0 42 29 93 65 115 48 30 136 27 203 -6 51 -25 145
-117 165 -161 15 -34 40 -30 33 5 -3 15 -8 64 -11 108 l-7 81 -36 11 c-36 10
-97 19 -177 26 -22 2 -67 0 -100 -4z"/>
<path d="M20732 8508 c-184 -29 -344 -206 -374 -416 -35 -242 84 -465 287
-532 93 -31 224 -26 307 12 71 33 146 102 180 165 56 104 45 119 -33 49 -61
-55 -121 -76 -215 -76 -136 0 -239 62 -290 175 -26 55 -52 210 -41 239 6 14
38 16 313 16 l306 0 -7 48 c-8 62 -53 157 -100 209 -44 52 -158 109 -230 115
-27 3 -74 1 -103 -4z m144 -58 c18 -12 42 -40 54 -65 24 -51 43 -195 26 -200
-6 -2 -98 -6 -205 -9 l-194 -5 6 50 c12 100 69 194 142 232 44 24 130 22 171
-3z"/>
<path d="M21534 8509 c-120 -15 -205 -71 -241 -158 -22 -51 -19 -160 5 -213
32 -71 86 -115 222 -181 156 -75 203 -107 224 -151 37 -78 6 -173 -67 -207
-126 -57 -273 17 -367 185 -18 31 -36 56 -42 56 -10 0 -6 -90 8 -212 l6 -46
71 -19 c106 -27 323 -25 393 3 120 49 176 129 176 252 0 83 -22 140 -76 194
-45 46 -98 78 -228 135 -168 74 -208 111 -208 194 0 81 57 129 155 129 91 0
183 -57 250 -155 21 -30 42 -55 47 -55 17 0 -4 209 -23 220 -36 23 -219 40
-305 29z"/>
<path d="M9280 8482 c0 -4 11 -23 25 -42 14 -19 30 -50 36 -70 6 -19 15 -167
19 -335 8 -332 11 -351 72 -420 51 -58 107 -79 196 -73 104 8 174 54 244 162
l38 59 0 -112 c0 -102 2 -112 18 -107 9 3 68 17 131 31 63 14 117 27 119 30 3
3 -4 15 -16 28 -55 58 -57 72 -60 480 l-3 377 -140 0 c-76 0 -139 -4 -139 -9
0 -5 7 -14 16 -22 8 -7 25 -31 37 -53 21 -39 22 -56 25 -314 3 -264 3 -274
-18 -307 -32 -52 -95 -85 -162 -85 -67 0 -112 27 -142 85 -20 38 -21 58 -24
373 l-3 332 -135 0 c-74 0 -134 -4 -134 -8z"/>
</g>
</svg>
